<?xml version="1.0" encoding="UTF-8"?>
<svg id="Capa_1" data-name="Capa 1" xmlns="http://www.w3.org/2000/svg" version="1.1" viewBox="0 0 359 177">
  <defs>
    <style>
      .cls-1 {
        fill: #fff;
        stroke-width: 0px;
      }
    </style>
  </defs>
  <path class="cls-1" d="M92.34,104.9c-7.01-.65-14.03-1.25-21.03-1.98-8.81-.92-17.48-2.62-25.92-5.36-5.39-1.75-10.57-3.96-15.07-7.5-3.66-2.88-6.37-6.43-6.75-11.21-.37-4.58,1.39-8.57,4.16-12.14,4.4-5.66,10.27-9.41,16.57-12.55,10.72-5.36,22.14-8.51,33.86-10.73,12.58-2.38,25.26-3.46,38.05-3.44,1.51,0,2.87-.27,4.19-1.23,14.93-10.92,31.71-17.44,49.84-20.6,7.88-1.37,15.84-2.22,23.86-2.15,8.17.08,16.35.01,24.49.47,11.47.64,22.8,2.33,33.55,6.66,7.07,2.85,13.57,6.73,17.54,13.42,1.89,3.19,3.99,3.94,7.36,3.94,12.24-.02,24.33,1.43,36.16,4.67,8.43,2.31,16.52,5.45,23.19,11.37,3.23,2.86,5.58,6.28,6.15,10.71.4,3.12-.42,5.95-1.94,8.6-3.42,5.95-8.79,9.79-14.62,13.01-10.87,6.03-22.49,10.02-34.67,12.41-9.49,1.86-19.06,3.02-28.73,3.02-7.44,0-14.91.11-22.31-.47-11.76-.92-23.4-2.75-34.63-6.59-6.32-2.16-12.45-4.7-17.47-9.3-2.03-1.86-3.69-3.99-4.21-6.8-.16-.84-.59-1.26-1.48-1.11-.16.03-.34.02-.5,0-3.54-.51-6.36.67-9.28,2.81-12.38,9.06-26.4,14.5-41.32,17.74-11.14,2.42-22.42,3.69-33.83,3.78-1.72.01-3.44.18-5.16.28-.01.09-.02.18-.03.27ZM114.67,57.72c.91-1.51,2.33-1.88,3.76-1.88,2.77,0,5.56.02,8.3.36,3.38.42,6.7,1,9.81,2.76,5.69,3.21,11.81,5.47,18.12,7.25,9.56,2.7,19.3,3.33,29.16,2.92.61-.03,1.44-.57,1.74-1.12,2.34-4.26,5.45-7.83,9.25-10.8,4.23-3.31,8.94-5.72,14.02-7.43,8.29-2.78,16.75-4.67,25.55-4.27,2.77.13,5.51.84,7.16,3.49,1.2,1.93.86,2.75-1.29,3.1-6.95,1.13-13.74,2.89-20.3,5.43-5.24,2.03-10.28,4.48-14.26,8.61-2.93,3.05-4.29,6.63-2.82,10.81.94,2.67,3.28,4.16,5.53,5.55,7.68,4.74,16.29,6.76,25.08,8,5.26.74,10.59,1.33,15.89,1.42,7.66.13,15.34.02,22.97-.52,5.6-.4,11.19-1.45,16.71-2.58,8.43-1.72,16.58-4.37,24.06-8.73,3.98-2.32,7.91-4.75,10.74-8.56,2.75-3.69,2.64-7.36-.77-10.36-1.84-1.62-4.03-2.98-6.27-3.97-8.73-3.85-18.09-5.03-27.48-5.63-6.42-.41-12.89-.14-19.34-.08-.72,0-1.61.41-2.13.92-7.19,7.08-15.24,12.87-24.56,16.85-7.46,3.18-15.23,4.94-23.28,5.58-1.75.14-3.55-.09-4.36-1.75-.85-1.73.39-3.2,1.52-4.44,2.34-2.58,5.35-4.03,8.59-5.16,4.27-1.5,8.6-2.89,12.71-4.77,4.76-2.18,9.25-4.89,12.17-9.51,2.63-4.18,2.12-7.94-1.45-11.37-2.83-2.72-6.27-4.39-9.9-5.64-10.31-3.56-21.06-4.7-31.87-5.04-14.68-.47-29.3.3-43.73,3.3-6.07,1.26-12.08,2.76-17.55,5.86-1.77,1.01-3.48,2.11-4.59,3.99.43.18.73.36,1.04.44,4.24,1.02,8.53,1.84,12.7,3.09,8.08,2.42,15.67,5.89,21.87,11.8,1.81,1.72,3.34,3.74,5,5.62-.11.15-.23.3-.34.45-.7.04-1.41.13-2.11.11-3.06-.07-6.11-.32-9.17-.24-3.88.1-7.64-.04-10.86-2.58-.08-.07-.21-.08-.31-.13-10.75-4.97-22.19-7.15-33.89-7.98-11.62-.83-23.19-.24-34.73,1.53-8.88,1.36-17.59,3.32-26.01,6.46-6.62,2.47-13.16,5.29-18.03,10.63-4.66,5.1-4.82,7.11.24,12.14,2.88,2.87,6.55,4.54,10.33,5.87,10.5,3.71,21.43,5.01,32.48,5.34,10.84.33,21.64-.18,32.37-1.95,9.09-1.5,18.03-3.51,26.37-7.52,2.81-1.35,5.39-3.15,8.08-4.74-.05-.18-.1-.35-.15-.53-15.82-2.93-30.43-8.3-41.8-20.4Z"/>
  <path class="cls-1" d="M135.06,132.02c-2.39,9.17-4.78,18.33-7.17,27.5h-12.63c.85-3.28,1.64-6.36,2.46-9.44,2.85-10.62,5.73-21.23,8.54-31.86.33-1.24.83-1.68,2.14-1.66,5.11.08,10.22.03,15.51.03v25.07c.11.04.22.08.33.12.23-.31.49-.61.67-.94,4.27-7.65,8.52-15.32,12.84-22.94.34-.59,1.22-1.24,1.86-1.25,4.9-.1,9.79-.05,14.69-.04.21,0,.43.08.9.18-.46,1.91-.88,3.77-1.36,5.62-3.05,11.82-6.13,23.64-9.16,35.47-.32,1.24-.79,1.87-2.23,1.81-2.88-.13-5.77-.04-8.96-.04,2.45-9.59,4.84-18.98,7.24-28.36-.1-.04-.2-.09-.3-.13-1.72,3.17-3.44,6.34-5.17,9.51-3.15,5.8-6.33,11.58-9.45,17.4-.61,1.14-1.29,1.72-2.68,1.62-2.05-.14-4.12-.15-6.17,0-1.6.11-1.99-.49-1.96-1.98.14-7.96.21-15.92.3-23.87,0-.6,0-1.19,0-1.79-.08-.01-.17-.02-.25-.04Z"/>
  <path class="cls-1" d="M44.74,114.93c3.32-.1,6.5.48,9.46,2.02,3.84,1.99,5.39,5.37,4.32,9.57-1.77,6.95-3.35,13.97-5.49,20.82-2.19,7.01-7.46,11.13-14.42,12.96-5.28,1.39-10.57,1.19-15.57-1.27-3.76-1.85-6.15-5.09-4.38-9.77.66-1.75,1.02-3.61,1.53-5.42,1.75-6.22,3.42-12.46,5.29-18.64,1.25-4.15,4.5-6.47,8.28-8.1,3.49-1.51,7.16-2.28,10.98-2.16ZM46.67,125.52c-.28-.55-.48-1.33-.97-1.84-2.32-2.39-8-.96-8.89,2.24-2.16,7.76-4.22,15.55-6.42,23.3-.48,1.68.21,2.8,1.4,3.53,1.43.87,3.08,1.21,4.78.58,2.43-.89,3.62-2.74,4.23-5.14,1.15-4.54,2.37-9.07,3.55-13.61.76-2.93,1.5-5.87,2.32-9.07Z"/>
  <path class="cls-1" d="M243.44,132.75c2.06-2.52,4.13-5.05,6.19-7.57,2.08-2.53,4.11-5.1,6.27-7.57.47-.53,1.36-.95,2.08-.97,3.36-.1,6.73-.04,10.6-.04-1.82,2.26-3.32,4.15-4.85,6.02-3.55,4.34-7.14,8.66-10.64,13.04-.37.47-.53,1.36-.38,1.96,1.75,6.79,3.57,13.56,5.37,20.34.12.47.14.97.23,1.68-3.94,0-7.76.04-11.57-.07-.36,0-.85-.89-1-1.45-1.56-5.58-3.06-11.18-4.59-16.78-.03-.1-.09-.2-.31-.65-.49,1.59-.92,2.9-1.3,4.23-1.25,4.41-2.5,8.82-3.69,13.25-.29,1.09-.79,1.53-1.96,1.51-3.44-.07-6.88-.03-10.6-.03.57-2.32,1.07-4.45,1.62-6.57,3.08-11.75,6.16-23.5,9.28-35.25.12-.47.66-1.18,1.01-1.19,3.88-.09,7.77-.05,11.98-.05-1.39,5.5-2.71,10.76-4.03,16.01.09.05.17.09.26.14Z"/>
  <path class="cls-1" d="M283.02,116.6c-1.08,4.26-2.09,8.32-3.15,12.37-1.8,6.89-3.59,13.78-5.46,20.66-.44,1.61.22,2.59,1.45,3.34,3.3,2,8.01.08,9.06-3.79,2.07-7.67,4.03-15.38,6.02-23.07.71-2.73,1.35-5.47,2.1-8.18.14-.49.65-1.25,1.01-1.26,3.7-.09,7.41-.06,11.41-.06-1.21,4.14-2.34,8-3.46,11.86-2.04,7.05-4.09,14.1-6.11,21.16-1.05,3.69-3.37,6.36-6.71,8.06-7.25,3.7-14.69,4.4-22.14.67-3.59-1.8-4.65-4.6-3.73-8.46,2.53-10.63,5.08-21.26,7.58-31.9.24-1.03.61-1.45,1.73-1.43,3.38.08,6.77.03,10.39.03Z"/>
  <path class="cls-1" d="M312.31,146.17c-.11,1.01-.3,2.04-.32,3.07-.05,2.39,1.36,4.19,3.37,4.44,2.33.29,4.64-1.21,5.24-3.41.95-3.44.59-4.39-2.3-6.5-2.73-1.99-5.5-3.93-8.11-6.07-6.81-5.57-4.15-14.06,1.34-18.07,3.33-2.43,7.18-3.52,11.2-3.63,2.84-.07,5.75.25,8.54.83,5.81,1.21,7.18,6.04,6.63,10.79-.06.49-.19.98-.31,1.57h-10.85c.08-.32.12-.64.23-.92,1.33-3.46-1.22-5.89-4.79-5.27-1.61.28-3.13.96-3.68,2.73-.51,1.63.42,2.82,1.51,3.78,2.66,2.34,5.45,4.55,8.13,6.88,2.06,1.79,4.02,3.66,4.65,6.5.59,2.65-.42,5.05-1.28,7.4-2.47,6.68-7.73,10.25-14.9,10.38-3.49.07-6.97.35-10.39-.78-4.95-1.63-6.16-5.36-5.44-9.65.72-4.29.83-4.28,5.15-4.28,2,0,4.01.02,6.01.04.1,0,.2.08.37.14Z"/>
  <path class="cls-1" d="M185.35,143.13c-.75,2.89-1.51,5.82-2.26,8.75-.56,2.19-1.15,4.38-1.67,6.58-.19.83-.54,1.22-1.45,1.2-3.34-.04-6.68-.04-10.02,0-1.22.01-1.38-.49-1.09-1.56,3.61-13.33,7.2-26.66,10.75-40.01.3-1.11.71-1.54,1.9-1.52,6.01.06,12.03-.19,18.03.09,6.17.29,12.02,4.52,11.19,11.55-.63,5.33-3.83,9.12-8.36,11.79-4.95,2.92-10.01,3.83-17.02,3.13ZM187.48,135.76c1.76,0,3.25,0,4.74,0,1.69.01,3.11-.71,3.94-2.07.93-1.53,1.77-3.21,2.19-4.93.6-2.44-.43-4.79-2.07-5.02-1.68-.24-3.43-.06-5.15,0-.24,0-.61.34-.68.58-.99,3.71-1.94,7.43-2.98,11.44Z"/>
  <path class="cls-1" d="M99.91,159.55h-12.36c1.14-4.23,2.04-8.4,3.42-12.39,1.31-3.79,1.1-7.38.16-11.17-1.56-6.32-2.84-12.71-4.3-19.39,2.11,0,4.02,0,5.93,0,1.45,0,2.89.04,4.34-.01.93-.03,1.34.21,1.53,1.24.85,4.48,1.83,8.94,2.84,13.83,1.49-2.09,2.79-3.89,4.06-5.72,1.92-2.78,3.8-5.6,5.75-8.36.31-.44.91-.92,1.39-.93,3.5-.08,7-.04,10.97-.04-1.08,1.5-1.93,2.73-2.84,3.92-5.26,6.87-10.49,13.76-15.83,20.58-1.64,2.1-1.73,4.61-2.35,6.98-1,3.79-1.82,7.62-2.72,11.47Z"/>
  <path class="cls-1" d="M78.87,116.65c-3.32,11.77-6.57,23.29-9.88,35.03h15.6c-.62,2.58-1.15,4.93-1.79,7.25-.09.32-.72.7-1.1.7-8.74.03-17.48.02-26.21,0-.15,0-.31-.1-.71-.25.89-3.34,1.78-6.68,2.68-10.02,2.78-10.34,5.6-20.68,8.33-31.04.32-1.23.76-1.74,2.08-1.7,3.55.09,7.11.03,11,.03Z"/>
  <path class="cls-1" d="M206.11,159.54c1.07-4.18,2.05-8.08,3.07-11.96,2.54-9.66,5.12-19.32,7.62-28.99.37-1.44.91-2.11,2.56-2.03,3.32.16,6.65.05,10.38.05-.56,2.13-1.07,4.02-1.56,5.91-3.04,11.7-6.09,23.41-9.08,35.12-.38,1.51-.98,2.18-2.67,2.07-2.71-.18-5.45-.04-8.17-.05-.6,0-1.2-.06-2.14-.12Z"/>
</svg>